<svg width="356.85" height="315" viewBox="0 0 361 408" fill="none" xmlns="http://www.w3.org/2000/svg">
<path d="M180.015 407.857C279.434 407.857 360.03 326.956 360.03 227.16C360.03 127.363 279.434 46.4619 180.015 46.4619C80.5954 46.4619 0 127.363 0 227.16C0 326.956 80.5954 407.857 180.015 407.857Z" fill="#262125"/>
<path d="M304.884 91.748V357.323C304.183 358.005 303.481 358.667 302.759 359.328C270.607 389.448 227.446 407.857 180.015 407.857C132.583 407.857 89.4229 389.448 57.2706 359.328C56.5481 358.667 55.8468 358.005 55.1455 357.323V65.0411C55.1455 53.0743 64.8571 43.3259 76.7787 43.3259H256.645L304.884 91.748Z" fill="white"/>
<path d="M257.516 41.1931H76.7786C63.6456 41.1931 53.0203 51.8801 53.0203 65.0415V355.233C53.7215 355.937 54.4228 356.641 55.1453 357.323C55.8466 358.006 56.5479 358.667 57.2704 359.328V65.0415C57.2704 54.2479 66.0257 45.4594 76.7786 45.4594H254.775V68.6039C254.775 82.4479 266.016 93.7322 279.829 93.7322H302.759V359.328C303.481 358.667 304.183 358.006 304.884 357.323C305.606 356.641 306.308 355.937 307.009 355.233V90.8738L257.516 41.1931ZM279.829 89.4659C268.354 89.4659 259.025 80.1014 259.025 68.6039V48.8297L299.507 89.4659H279.829Z" fill="#333333"/>
<g opacity="0.55">
<path opacity="0.55" d="M215.886 295.163H83.1326C80.3063 295.163 78.0112 292.859 78.0112 290.022C78.0112 287.185 80.3063 284.881 83.1326 284.881H215.886C218.712 284.881 221.007 287.185 221.007 290.022C221.007 292.859 218.712 295.163 215.886 295.163Z" fill="#ED960B"/>
</g>
<g opacity="0.55">
<path opacity="0.55" d="M265.018 319.632H83.1326C80.3063 319.632 78.0112 317.328 78.0112 314.491C78.0112 311.654 80.3063 309.35 83.1326 309.35H265.018C267.844 309.35 270.139 311.654 270.139 314.491C270.139 317.328 267.844 319.632 265.018 319.632Z" fill="#ED960B"/>
</g>
<g opacity="0.55">
<path opacity="0.55" d="M185.837 344.099H83.1326C80.3063 344.099 78.0112 341.795 78.0112 338.958C78.0112 336.121 80.3063 333.817 83.1326 333.817H185.816C188.642 333.817 190.938 336.121 190.938 338.958C190.959 341.795 188.664 344.099 185.837 344.099Z" fill="#ED960B"/>
</g>
<path d="M130.649 184.007C135.86 184.007 140.084 178.554 140.084 171.827C140.084 165.1 135.86 159.647 130.649 159.647C125.438 159.647 121.214 165.1 121.214 171.827C121.214 178.554 125.438 184.007 130.649 184.007Z" fill="#333333"/>
<path d="M233.63 184.007C238.841 184.007 243.065 178.554 243.065 171.827C243.065 165.1 238.841 159.647 233.63 159.647C228.419 159.647 224.195 165.1 224.195 171.827C224.195 178.554 228.419 184.007 233.63 184.007Z" fill="#333333"/>
<path d="M182.161 223.405C171.09 223.405 166.393 216.323 165.437 212.569C165.139 211.417 165.841 210.265 166.967 209.988C168.093 209.71 169.262 210.393 169.538 211.524C169.623 211.865 171.727 219.16 182.14 219.16C192.553 219.16 194.593 211.929 194.678 211.609C194.975 210.478 196.144 209.796 197.27 210.094C198.397 210.393 199.077 211.524 198.801 212.676C197.908 216.345 193.233 223.405 182.161 223.405Z" fill="#333333"/>
<g opacity="0.55">
<path opacity="0.55" d="M233.63 196.677C240.743 196.677 246.508 194.786 246.508 192.454C246.508 190.121 240.743 188.23 233.63 188.23C226.518 188.23 220.752 190.121 220.752 192.454C220.752 194.786 226.518 196.677 233.63 196.677Z" fill="#ED960B"/>
</g>
<g opacity="0.55">
<path opacity="0.55" d="M130.649 196.677C137.762 196.677 143.527 194.786 143.527 192.454C143.527 190.121 137.762 188.23 130.649 188.23C123.537 188.23 117.771 190.121 117.771 192.454C117.771 194.786 123.537 196.677 130.649 196.677Z" fill="#ED960B"/>
</g>
<line x1="12.5623" y1="57.1491" x2="40.2493" y2="57.1491" stroke="#333333" stroke-width="4" stroke-linecap="round" stroke-linejoin="round"/>
<line x1="63.2615" y1="2" x2="63.2615" y2="29.687" stroke="#333333" stroke-width="4" stroke-linecap="round" stroke-linejoin="round"/>
<line x1="25.4249" y1="17.3154" x2="45.0025" y2="36.8931" stroke="#333333" stroke-width="4" stroke-linecap="round" stroke-linejoin="round"/>
</svg>
